<svg width="32" height="32" viewBox="0 0 32 32" fill="none" xmlns="http://www.w3.org/2000/svg">
<rect width="32" height="32" rx="16" fill="#EA5230"/>
<path fill-rule="evenodd" clip-rule="evenodd" d="M11.7952 21.3406L15.2495 19.1137C15.906 18.7761 16.5134 18.3177 17.0371 17.7403C19.3746 15.1632 19.1621 11.1904 16.5625 8.86674C13.9629 6.54312 9.96053 6.74858 7.62305 9.32566C5.28556 11.9027 5.49808 15.8755 8.09771 18.1992C8.68824 18.727 9.35115 19.1243 10.0505 19.393C8.57847 20.5754 8.21479 22.6949 9.26892 24.3063C10.2825 25.8557 12.2616 26.4074 13.9119 25.6884C14.0345 25.6534 14.1535 25.5987 14.2646 25.5234L14.3965 25.4338C14.4146 25.4226 14.4326 25.4112 14.4506 25.3997L18.4923 22.6557C19.0134 22.3341 19.7002 22.4844 20.0359 22.9975C20.247 23.3202 20.2695 23.7104 20.1309 24.0407C21.0129 23.3361 21.2603 22.1058 20.7184 21.1191C20.0999 19.9926 18.6785 19.5772 17.5438 20.1913C17.4972 20.2165 17.4505 20.2426 17.4035 20.2696C17.3455 20.2968 17.289 20.3289 17.2343 20.366L17.1386 20.4309C17.1086 20.4501 17.0785 20.4697 17.0483 20.4897L13.0066 23.2337C12.4855 23.5553 11.7987 23.405 11.463 22.8919C11.1232 22.3724 11.2719 21.6779 11.7952 21.3406ZM14.6422 10.7629C16.1345 12.1065 16.2565 14.4035 14.9147 15.8936C13.5729 17.3837 11.2753 17.5025 9.78301 16.1589C8.29069 14.8154 8.16869 12.5183 9.51053 11.0283C10.8524 9.5382 13.1499 9.4194 14.6422 10.7629Z" fill="white"/>
<path d="M20.99 8.87811C21.6073 8.87337 22.1162 9.36531 22.1372 9.98143L22.0907 12.9621C22.0907 14.7185 24.7115 14.7185 24.7115 12.9648L24.758 9.98413C24.758 9.94769 24.7576 9.91151 24.757 9.8756L24.758 9.75922C24.7586 9.69276 24.754 9.62744 24.7444 9.56367C24.7409 9.50924 24.7368 9.45548 24.7319 9.40239C24.6139 8.10877 23.4732 7.14893 22.184 7.25853C21.0547 7.35453 20.1613 8.24794 20.0625 9.38015C20.262 9.07979 20.6017 8.88108 20.99 8.87811Z" fill="white"/>
</svg>
