<svg width="16" height="17" viewBox="0 0 16 17" fill="none" xmlns="http://www.w3.org/2000/svg">
<path fill-rule="evenodd" clip-rule="evenodd" d="M3.91113 7.03323C3.91113 4.77499 5.74179 2.94434 8.00002 2.94434C10.2583 2.94434 12.0889 4.77499 12.0889 7.03323C12.0889 9.29146 10.2583 11.1221 8.00002 11.1221C5.74179 11.1221 3.91113 9.29146 3.91113 7.03323ZM8.00002 4.27767C6.47817 4.27767 5.24447 5.51137 5.24447 7.03323C5.24447 8.55508 6.47817 9.78878 8.00002 9.78878C9.52187 9.78878 10.7556 8.55508 10.7556 7.03323C10.7556 5.51137 9.52187 4.27767 8.00002 4.27767Z" fill="#0B0D17"/>
<path fill-rule="evenodd" clip-rule="evenodd" d="M3.02094 13.8159C4.33861 12.49 6.13073 11.7444 8.00007 11.7444C9.8694 11.7444 11.6615 12.49 12.9792 13.8159C13.2387 14.0771 13.2374 14.4992 12.9762 14.7587C12.7151 15.0183 12.293 15.017 12.0334 14.7558C10.9661 13.6817 9.51433 13.0777 8.00007 13.0777C6.4858 13.0777 5.03408 13.6817 3.96669 14.7558C3.70716 15.017 3.28505 15.0183 3.02389 14.7587C2.76273 14.4992 2.7614 14.0771 3.02094 13.8159Z" fill="#0B0D17"/>
<path fill-rule="evenodd" clip-rule="evenodd" d="M0 8.5C0 4.08172 3.58172 0.5 8 0.5C12.4183 0.5 16 4.08172 16 8.5C16 12.9183 12.4183 16.5 8 16.5C3.58172 16.5 0 12.9183 0 8.5ZM8 1.83333C4.3181 1.83333 1.33333 4.8181 1.33333 8.5C1.33333 12.1819 4.3181 15.1667 8 15.1667C11.6819 15.1667 14.6667 12.1819 14.6667 8.5C14.6667 4.8181 11.6819 1.83333 8 1.83333Z" fill="#0B0D17"/>
</svg>
