<svg width="24" height="24" viewBox="0 0 24 24" fill="none"
    xmlns="http://www.w3.org/2000/svg">
    <path fill-rule="evenodd" clip-rule="evenodd" d="M20.4851 3.5147C20.8757 3.90522 20.8757 4.53839 20.4851 4.92891L4.92879 20.4853C4.53826 20.8758 3.9051 20.8758 3.51457 20.4853C3.12405 20.0947 3.12405 19.4616 3.51457 19.071L19.0709 3.5147C19.4614 3.12417 20.0946 3.12417 20.4851 3.5147Z" fill="#ffffff"/>
    <path fill-rule="evenodd" clip-rule="evenodd" d="M19.778 19.7411C19.2257 19.7411 18.778 19.2933 18.778 18.7411V5.2218L5.25877 5.2218C4.70648 5.2218 4.25877 4.77409 4.25876 4.2218C4.25876 3.66952 4.70648 3.2218 5.25876 3.2218L19.778 3.2218C20.3303 3.2218 20.778 3.66952 20.778 4.2218V18.7411C20.778 19.2933 20.3303 19.7411 19.778 19.7411Z" fill="#ffffff"/>
</svg>
