<svg width="12" height="12" viewBox="0 0 12 12" fill="none" xmlns="http://www.w3.org/2000/svg">
<g clip-path="url(#clip0_2129_6176)">
<path d="M6 0C4.81331 0 3.65328 0.351894 2.66658 1.01118C1.67989 1.67047 0.910851 2.60754 0.456726 3.7039C0.00259972 4.80026 -0.11622 6.00666 0.115291 7.17054C0.346802 8.33443 0.918247 9.40353 1.75736 10.2426C2.59648 11.0818 3.66558 11.6532 4.82946 11.8847C5.99335 12.1162 7.19975 11.9974 8.2961 11.5433C9.39246 11.0892 10.3295 10.3201 10.9888 9.33342C11.6481 8.34673 12 7.18669 12 6C11.9983 4.40923 11.3656 2.88411 10.2407 1.75926C9.1159 0.634414 7.59077 0.00172054 6 0V0ZM8 7.2935C8.0496 7.33915 8.08945 7.39435 8.11717 7.45579C8.14489 7.51723 8.15989 7.58365 8.16129 7.65104C8.16269 7.71843 8.15044 7.7854 8.12529 7.84794C8.10015 7.91048 8.06261 7.96728 8.01495 8.01495C7.96729 8.06261 7.91048 8.10014 7.84794 8.12529C7.78541 8.15044 7.71843 8.16268 7.65104 8.16129C7.58365 8.15989 7.51724 8.14488 7.4558 8.11717C7.39435 8.08945 7.33915 8.04959 7.2935 8L6 6.707L4.707 8C4.6127 8.09108 4.4864 8.14148 4.3553 8.14034C4.2242 8.1392 4.0988 8.08661 4.00609 7.99391C3.91339 7.90121 3.8608 7.7758 3.85967 7.6447C3.85853 7.5136 3.90892 7.3873 4 7.293L5.293 6L4 4.707C3.90892 4.6127 3.85853 4.4864 3.85967 4.3553C3.8608 4.2242 3.91339 4.09879 4.00609 4.00609C4.0988 3.91339 4.2242 3.8608 4.3553 3.85966C4.4864 3.85852 4.6127 3.90892 4.707 4L6 5.293L7.2935 4C7.33915 3.9504 7.39435 3.91055 7.4558 3.88283C7.51724 3.85512 7.58365 3.84011 7.65104 3.83871C7.71843 3.83732 7.78541 3.84956 7.84794 3.87471C7.91048 3.89986 7.96729 3.93739 8.01495 3.98505C8.06261 4.03271 8.10015 4.08952 8.12529 4.15206C8.15044 4.2146 8.16269 4.28157 8.16129 4.34896C8.15989 4.41635 8.14489 4.48277 8.11717 4.54421C8.08945 4.60565 8.0496 4.66085 8 4.7065L6.707 6L8 7.2935Z" fill="#B1B1B1"/>
</g>
<defs>
<clipPath id="clip0_2129_6176">
<rect width="12" height="12" fill="white"/>
</clipPath>
</defs>
</svg>
