<svg width="24" height="25" viewBox="0 0 24 25" fill="none" xmlns="http://www.w3.org/2000/svg">
<g clip-path="url(#clip0_4107_19594)">
<path d="M14.121 12.5L23.561 3.06099C23.8424 2.7796 24.0005 2.39794 24.0005 1.99999C24.0005 1.60204 23.8424 1.22039 23.561 0.938992C23.2796 0.657598 22.8979 0.499512 22.5 0.499512C22.102 0.499512 21.7204 0.657598 21.439 0.938992L12 10.379L2.56099 0.938992C2.2796 0.657598 1.89794 0.499512 1.49999 0.499512C1.10204 0.499512 0.720387 0.657598 0.438992 0.938992C0.157598 1.22039 -0.000488281 1.60204 -0.000488281 1.99999C-0.000488281 2.39794 0.157598 2.7796 0.438992 3.06099L9.87899 12.5L0.438992 21.939C0.157598 22.2204 -0.000488281 22.602 -0.000488281 23C-0.000488281 23.3979 0.157598 23.7796 0.438992 24.061C0.720387 24.3424 1.10204 24.5005 1.49999 24.5005C1.89794 24.5005 2.2796 24.3424 2.56099 24.061L12 14.621L21.439 24.061C21.7204 24.3424 22.102 24.5005 22.5 24.5005C22.8979 24.5005 23.2796 24.3424 23.561 24.061C23.8424 23.7796 24.0005 23.3979 24.0005 23C24.0005 22.602 23.8424 22.2204 23.561 21.939L14.121 12.5Z" fill="#0B0D17"/>
</g>
<defs>
<clipPath id="clip0_4107_19594">
<rect width="24" height="24" fill="white" transform="translate(0 0.5)"/>
</clipPath>
</defs>
</svg>
