<svg width="24" height="24" viewBox="0 0 24 24" fill="none" xmlns="http://www.w3.org/2000/svg">
<path fill-rule="evenodd" clip-rule="evenodd" d="M23.9727 12C23.9727 18.6274 18.6061 24 11.9863 24C5.36653 24 0 18.6274 0 12C0 5.37263 5.36653 0 11.9863 0C18.6061 0 23.9727 5.37263 23.9727 12Z" fill="#170B10"/>
<path fill-rule="evenodd" clip-rule="evenodd" d="M13.8618 13.5106H17.246V10.1223H13.8618V13.5106Z" fill="white"/>
<path fill-rule="evenodd" clip-rule="evenodd" d="M10.4769 14.7809C10.4769 15.4827 9.90873 16.0515 9.20801 16.0515C8.50704 16.0515 7.93866 15.4827 7.93866 14.7809C7.93866 14.0791 8.50704 13.5103 9.20801 13.5103H10.4769V10.122H9.20801C6.64174 10.122 4.5542 12.2119 4.5542 14.7809C4.5542 17.3499 6.64174 19.4398 9.20801 19.4398C11.7736 19.4398 13.8611 17.3499 13.8611 14.7809V13.5103H10.4769V14.7809Z" fill="white"/>
<path fill-rule="evenodd" clip-rule="evenodd" d="M15.1306 8.42839H18.9382V5.04005H15.1306C12.5646 5.04005 10.4771 7.12999 10.4771 9.69896V10.1223H13.8615V9.69896C13.8622 8.99765 14.4299 8.42911 15.1306 8.42839Z" fill="white"/>
<path fill-rule="evenodd" clip-rule="evenodd" d="M10.4771 13.5103H13.8613H13.8615V10.122H13.8613H10.4771V13.5103Z" fill="#170B10"/>
</svg>
