<svg width="24" height="24" viewBox="0 0 24 24" fill="none" xmlns="http://www.w3.org/2000/svg">
<path d="M19.2319 1.22515L14.2243 8.65594C13.878 9.16197 14.5438 9.77456 15.0233 9.34841L19.9511 5.06039C20.0844 4.95386 20.2708 5.03376 20.2708 5.2202V18.6169C20.2708 18.8034 20.0311 18.8833 19.9245 18.75L5.00778 0.905545C4.52831 0.319604 3.83574 0 3.06327 0H2.53052C1.1454 0 0 1.14525 0 2.55683V21.4135C0 22.825 1.1454 23.9703 2.55716 23.9703C3.43619 23.9703 4.26194 23.5175 4.74141 22.7452L9.74918 15.3144C10.0955 14.8084 9.42954 14.1957 8.95007 14.6219L4.02221 18.8833C3.88901 18.9897 3.70256 18.9099 3.70256 18.7234V5.35337C3.70256 5.16693 3.94229 5.08702 4.04884 5.2202L18.9656 23.0647C19.4451 23.6507 20.1643 23.9703 20.9101 23.9703H21.4429C22.8547 23.9703 24 22.825 24 21.4135V2.55683C23.9734 1.14525 22.8279 0 21.4163 0C20.5372 0 19.7114 0.452772 19.2319 1.22515Z" fill="#170B10"/>
</svg>
