<svg width="24" height="24" viewBox="0 0 24 24" fill="none" xmlns="http://www.w3.org/2000/svg">
<path fill-rule="evenodd" clip-rule="evenodd" d="M5.8667 9.79996C5.8667 6.41261 8.61269 3.66663 12 3.66663C15.3874 3.66663 18.1334 6.41261 18.1334 9.79996C18.1334 13.1873 15.3874 15.9333 12 15.9333C8.61269 15.9333 5.8667 13.1873 5.8667 9.79996ZM12 5.66663C9.71726 5.66663 7.8667 7.51718 7.8667 9.79996C7.8667 12.0827 9.71726 13.9333 12 13.9333C14.2828 13.9333 16.1334 12.0827 16.1334 9.79996C16.1334 7.51718 14.2828 5.66663 12 5.66663Z" fill="#0B0D17"/>
<path fill-rule="evenodd" clip-rule="evenodd" d="M4.53141 19.9739C6.50792 17.9849 9.1961 16.8665 12.0001 16.8665C14.8041 16.8665 17.4923 17.9849 19.4688 19.9739C19.8581 20.3656 19.8561 20.9988 19.4644 21.3881C19.0726 21.7774 18.4395 21.7754 18.0502 21.3836C16.4491 19.7725 14.2715 18.8665 12.0001 18.8665C9.7287 18.8665 7.55112 19.7725 5.95004 21.3836C5.56074 21.7754 4.92758 21.7774 4.53583 21.3881C4.14409 20.9988 4.14211 20.3656 4.53141 19.9739Z" fill="#0B0D17"/>
<path fill-rule="evenodd" clip-rule="evenodd" d="M0 12C0 5.37258 5.37258 0 12 0C18.6274 0 24 5.37258 24 12C24 18.6274 18.6274 24 12 24C5.37258 24 0 18.6274 0 12ZM12 2C6.47715 2 2 6.47715 2 12C2 17.5228 6.47715 22 12 22C17.5228 22 22 17.5228 22 12C22 6.47715 17.5228 2 12 2Z" fill="#0B0D17"/>
</svg>
