<svg width="24" height="25" viewBox="0 0 24 25" fill="none" xmlns="http://www.w3.org/2000/svg">
<g clip-path="url(#clip0_2836_1283)">
<path d="M23.0609 7.52993C23.5786 7.52993 23.9982 7.11027 23.9982 6.59256V5.60834C23.9982 3.02206 21.8941 0.917969 19.3078 0.917969C19.3078 0.917969 4.61429 0.920172 4.57807 0.924437C3.34126 0.967649 2.15321 1.49838 1.29683 2.39572C0.419042 3.31546 -0.0385774 4.51172 0.00449434 5.77036C0.00271336 5.79421 0.001776 19.2902 0.001776 19.2902C0.001776 22.3934 2.52637 24.918 5.6295 24.918H19.3078C21.8941 24.918 23.9982 22.8139 23.9982 20.2276V13.1108C23.9982 10.5245 21.8941 8.42042 19.3078 8.42042H4.68853C3.18355 8.42042 1.94971 7.24412 1.87954 5.74247C1.84388 4.9789 2.11857 4.25001 2.65296 3.69003C3.19508 3.12199 3.95645 2.79625 4.74178 2.79625C4.76947 2.79625 19.3078 2.79269 19.3078 2.79269C20.8603 2.79269 22.1234 4.05578 22.1234 5.60834V6.59256C22.1235 7.11027 22.5431 7.52993 23.0609 7.52993ZM4.68853 10.2951H19.3078C20.8604 10.2951 22.1234 11.5582 22.1234 13.1108V20.2276C22.1234 21.7802 20.8604 23.0432 19.3078 23.0432H5.6295C3.56009 23.0432 1.8765 21.3597 1.8765 19.2902V9.36158C2.66051 9.94883 3.63466 10.2951 4.68853 10.2951ZM20.2488 16.6692C20.2488 17.3163 19.7242 17.8409 19.0771 17.8409C17.5228 17.7792 17.5233 15.559 19.0771 15.4975C19.7242 15.4975 20.2488 16.0221 20.2488 16.6692ZM20.2488 5.60834C20.2488 5.09063 19.8291 4.67097 19.3114 4.67097H4.68858C3.44489 4.72047 3.44583 6.49662 4.68858 6.5457H19.3114C19.8291 6.5457 20.2488 6.12604 20.2488 5.60834Z" fill="#DCDCDC"/>
</g>
<defs>
<clipPath id="clip0_2836_1283">
<rect width="24" height="24" fill="white" transform="translate(0 0.917969)"/>
</clipPath>
</defs>
</svg>
